<svg width="960" height="920" viewBox="0 0 960 920" fill="none" xmlns="http://www.w3.org/2000/svg">
  <defs>
    <linearGradient id="bg" x1="120" y1="40" x2="820" y2="860" gradientUnits="userSpaceOnUse">
      <stop stop-color="#17344F"/>
      <stop offset="0.5" stop-color="#0B1731"/>
      <stop offset="1" stop-color="#091126"/>
    </linearGradient>
    <linearGradient id="glow" x1="420" y1="320" x2="715" y2="515" gradientUnits="userSpaceOnUse">
      <stop stop-color="#F5F8FF"/>
      <stop offset="0.35" stop-color="#93F1F0"/>
      <stop offset="1" stop-color="#66C8FF" stop-opacity="0"/>
    </linearGradient>
    <radialGradient id="halo" cx="0" cy="0" r="1" gradientUnits="userSpaceOnUse" gradientTransform="translate(640 395) rotate(126.777) scale(212.065 220.633)">
      <stop stop-color="#C5FFEF" stop-opacity="0.82"/>
      <stop offset="0.46" stop-color="#70E4FF" stop-opacity="0.34"/>
      <stop offset="1" stop-color="#70E4FF" stop-opacity="0"/>
    </radialGradient>
    <filter id="blur" x="310" y="203" width="464" height="359" filterUnits="userSpaceOnUse" color-interpolation-filters="sRGB">
      <feGaussianBlur stdDeviation="36"/>
    </filter>
  </defs>

  <rect x="24" y="24" width="912" height="872" rx="44" fill="url(#bg)"/>
  <rect x="24" y="24" width="912" height="872" rx="44" stroke="#2A5579" stroke-opacity="0.7" stroke-width="3"/>

  <circle cx="183" cy="170" r="122" fill="#70E4FF" fill-opacity="0.08"/>
  <circle cx="835" cy="118" r="130" fill="#D7BD7B" fill-opacity="0.06"/>
  <circle cx="762" cy="752" r="145" fill="#70E4FF" fill-opacity="0.05"/>

  <g opacity="0.42">
    <path d="M676 112C748 136 792 197 792 266" stroke="#A7E9FF" stroke-width="2"/>
    <path d="M707 89C790 126 842 200 842 286" stroke="#A7E9FF" stroke-opacity="0.45" stroke-width="2"/>
    <path d="M643 97C715 115 773 170 800 239" stroke="#A7E9FF" stroke-opacity="0.36" stroke-width="2"/>
  </g>

  <g filter="url(#blur)">
    <ellipse cx="554" cy="382" rx="158" ry="82" fill="url(#halo)"/>
  </g>

  <path d="M372 651C419 627 468 565 482 521C491 493 487 454 463 422C438 389 401 370 353 366C307 362 255 380 219 420C185 457 170 505 176 554C183 612 222 658 285 689C319 706 353 710 388 706" fill="#F6F1EB"/>
  <path d="M402 352C365 328 312 317 266 331C231 341 201 364 179 396C200 344 244 301 305 284C376 265 464 289 522 344C492 331 447 332 402 352Z" fill="#0A0E19"/>
  <path d="M292 483C329 494 367 494 405 485" stroke="#243A63" stroke-width="8" stroke-linecap="round"/>
  <path d="M300 560C343 575 392 571 430 550" stroke="#243A63" stroke-width="10" stroke-linecap="round"/>
  <circle cx="287" cy="451" r="9" fill="#0B1121"/>
  <path d="M243 468C252 451 268 440 288 440" stroke="#243A63" stroke-width="8" stroke-linecap="round"/>

  <path d="M471 435C526 426 577 414 623 388C653 372 679 348 704 319" stroke="#091224" stroke-width="18" stroke-linecap="round"/>
  <path d="M452 468C524 464 594 456 655 429C705 407 748 371 785 325" stroke="#091224" stroke-width="18" stroke-linecap="round"/>
  <path d="M441 504C503 502 560 497 614 481C681 462 740 424 792 375" stroke="#091224" stroke-width="18" stroke-linecap="round"/>

  <path d="M642 338L734 302" stroke="#DDE7FA" stroke-width="14" stroke-linecap="round"/>
  <path d="M648 362L740 326" stroke="#DDE7FA" stroke-width="14" stroke-linecap="round"/>
  <path d="M722 278L779 382" stroke="#DDE7FA" stroke-width="10" stroke-linecap="round"/>
  <path d="M707 294L764 398" stroke="#DDE7FA" stroke-width="10" stroke-linecap="round"/>
  <circle cx="724" cy="291" r="18" stroke="#DDE7FA" stroke-width="7"/>
  <circle cx="760" cy="377" r="18" stroke="#DDE7FA" stroke-width="7"/>

  <path d="M624 344C651 337 676 327 703 315" stroke="url(#glow)" stroke-width="18" stroke-linecap="round"/>
  <path d="M587 382C633 379 676 367 720 345" stroke="url(#glow)" stroke-width="20" stroke-linecap="round"/>
  <path d="M558 424C617 425 678 406 739 374" stroke="url(#glow)" stroke-width="22" stroke-linecap="round"/>

  <path d="M601 273L614 247L627 273L653 286L627 299L614 325L601 299L575 286L601 273Z" fill="#E7F2FF"/>
  <path d="M548 323L557 305L566 323L584 332L566 341L557 359L548 341L530 332L548 323Z" fill="#C8FFF3"/>
  <path d="M688 420L698 400L708 420L728 430L708 440L698 460L688 440L668 430L688 420Z" fill="#C8FFF3"/>
  <path d="M760 258L770 238L780 258L800 268L780 278L770 298L760 278L740 268L760 258Z" fill="#E7F2FF"/>
  <circle cx="579" cy="362" r="10" fill="#F6D88C"/>
  <circle cx="544" cy="451" r="7" fill="#F6D88C"/>

  <rect x="76" y="734" width="808" height="104" rx="28" fill="#0B1326" fill-opacity="0.7" stroke="#2E5576" stroke-opacity="0.8" stroke-width="2"/>
  <text x="112" y="778" fill="#C9E9FF" font-family="Georgia, serif" font-size="26" letter-spacing="4">RITUAL RELEASE</text>
  <text x="112" y="818" fill="#F6F7FB" font-family="Georgia, serif" font-size="44">The day you cut away the heavy things matters.</text>
</svg>
