<svg width="240" height="60" viewBox="0 0 240 60" fill="none" xmlns="http://www.w3.org/2000/svg">
  <rect width="60" height="60" rx="20" fill="url(#panel)"/>
  <circle cx="30" cy="30" r="19" fill="url(#aura)"/>
  <path d="M31 14.5C24.4 18.1 21.8 26.4 25.2 33.3C28.6 40.1 36.7 43 43.4 39.7C39.8 39.8 36.2 37.9 34.2 34C31.5 28.8 33.5 22.3 38.6 19.4C36.1 15.7 33.2 14.7 31 14.5Z" fill="#F7E4A6"/>
  <path d="M20.4 20.6L22.8 26.8L29.5 27.1L24.3 31.2L26.1 37.7L20.4 33.9L14.7 37.7L16.5 31.2L11.3 27.1L18 26.8L20.4 20.6Z" fill="#B8FCFF"/>
  <circle cx="44" cy="18" r="3" fill="#8EF6E3"/>

  <text x="76" y="20" fill="#9AF7F6" font-family="Palatino Linotype, Georgia, serif" font-size="8" letter-spacing="0.26em">TRIMRY</text>
  <path d="M76 26H82V48H76V26Z" fill="#E8F3FF"/>
  <path d="M86 26H92V35.4H101V26H107V48H101V40.7H92V48H86V26Z" fill="#E8F3FF"/>
  <path d="M110 26H116.8L122 37.3L127.2 26H134L124.8 48H119.2L110 26Z" fill="#E8F3FF"/>
  <path d="M137 26H143V48H137V26Z" fill="#E8F3FF"/>
  <path d="M147 26H154L159.1 34.4L164.2 26H171L162 39.2V48H155.9V39.2L147 26Z" fill="#E8F3FF"/>

  <defs>
    <linearGradient id="panel" x1="6" y1="4" x2="54" y2="57" gradientUnits="userSpaceOnUse">
      <stop stop-color="#0D2A52"/>
      <stop offset="0.52" stop-color="#123C72"/>
      <stop offset="1" stop-color="#0A182F"/>
    </linearGradient>
    <radialGradient id="aura" cx="0" cy="0" r="1" gradientUnits="userSpaceOnUse" gradientTransform="translate(30 30) rotate(90) scale(19)">
      <stop stop-color="#56F2D8" stop-opacity="0.5"/>
      <stop offset="1" stop-color="#56F2D8" stop-opacity="0.02"/>
    </radialGradient>
  </defs>
</svg>
